<mxfile host="65bd71144e">
    <diagram id="LQfXTK4Zi8GFW6QEiPnX" name="Page-1">
        <mxGraphModel dx="2160" dy="1580" grid="1" gridSize="10" guides="1" tooltips="1" connect="1" arrows="1" fold="1" page="1" pageScale="1" pageWidth="850" pageHeight="1100" background="#F1FAEE" math="0" shadow="0">
            <root>
                <mxCell id="0"/>
                <mxCell id="1" parent="0"/>
                <mxCell id="13" value="" style="strokeWidth=1;shadow=0;dashed=0;align=center;html=1;shape=mxgraph.mockup.containers.browserWindow;rSize=0;strokeColor=#666666;strokeColor2=#008cff;strokeColor3=#c4c4c4;mainText=,;recursiveResize=0;rounded=0;sketch=0;fontColor=#1D3557;fillColor=#FFFFFF;gradientColor=none;container=0;" parent="1" vertex="1">
                    <mxGeometry x="10" y="10" width="1670" height="1640" as="geometry"/>
                </mxCell>
                <mxCell id="213" value="&lt;h1 style=&quot;font-size: 50px&quot;&gt;&lt;font style=&quot;font-size: 50px&quot;&gt;Calculating the digital divide during COVID&lt;/font&gt;&lt;/h1&gt;&lt;p style=&quot;font-size: 50px&quot;&gt;&lt;font style=&quot;font-size: 50px&quot;&gt;Digital resources are essential for students facing school closures during the pandemic. This calculator illustrates how factors like race, income, and internet access correlate with the number of virtual live school hours per week a student receives.&amp;nbsp;&lt;/font&gt;&lt;/p&gt;" style="text;html=1;strokeColor=none;fillColor=none;spacing=5;spacingTop=-20;whiteSpace=wrap;overflow=hidden;rounded=0;labelBackgroundColor=none;sketch=0;fontSize=80;fontColor=#666666;opacity=0;" parent="1" vertex="1">
                    <mxGeometry x="58.75" y="140" width="1502.5" height="370" as="geometry"/>
                </mxCell>
                <mxCell id="123" value="&lt;font style=&quot;font-size: 24px&quot; color=&quot;#66b2ff&quot;&gt;See the Data&lt;/font&gt;" style="strokeWidth=1;shadow=0;dashed=0;align=center;html=1;shape=mxgraph.mockup.text.textBox;fontColor=#666666;align=left;fontSize=17;spacingLeft=4;spacingTop=-3;strokeColor=#666666;mainText=;rounded=0;sketch=0;fillColor=#FFFFFF;gradientColor=none;opacity=0;" parent="1" vertex="1">
                    <mxGeometry x="565" y="1560" width="180" height="30" as="geometry"/>
                </mxCell>
                <mxCell id="124" value="&lt;font style=&quot;font-size: 24px&quot; color=&quot;#66b2ff&quot;&gt;See the Survey&lt;/font&gt;" style="strokeWidth=1;shadow=0;dashed=0;align=center;html=1;shape=mxgraph.mockup.text.textBox;fontColor=#666666;align=left;fontSize=17;spacingLeft=4;spacingTop=-3;strokeColor=#666666;mainText=;rounded=0;sketch=0;fillColor=#FFFFFF;gradientColor=none;opacity=0;" parent="1" vertex="1">
                    <mxGeometry x="945" y="1560" width="180" height="30" as="geometry"/>
                </mxCell>
                <mxCell id="118" value="" style="verticalLabelPosition=bottom;shadow=0;dashed=0;align=center;html=1;verticalAlign=top;strokeWidth=4;shape=mxgraph.mockup.forms.horSlider;strokeColor=#999999;sliderStyle=basic;sliderPos=20;handleStyle=circle;fillColor2=#ddeeff;rounded=0;sketch=0;fontColor=#1D3557;fillColor=#FFFFFF;gradientColor=none;" parent="1" vertex="1">
                    <mxGeometry x="605" y="1130" width="480" height="30" as="geometry"/>
                </mxCell>
                <mxCell id="14" value="&lt;font style=&quot;font-size: 12px&quot;&gt;Our Awesome App&lt;/font&gt;" style="strokeWidth=1;shadow=0;dashed=0;align=center;html=1;shape=mxgraph.mockup.containers.anchor;fontSize=17;fontColor=#666666;align=left;" parent="1" vertex="1">
                    <mxGeometry x="70" y="22" width="110" height="26" as="geometry"/>
                </mxCell>
                <mxCell id="15" value="https://www.ourawesomeapp.io" style="strokeWidth=1;shadow=0;dashed=0;align=center;html=1;shape=mxgraph.mockup.containers.anchor;rSize=0;fontSize=17;fontColor=#666666;align=left;" parent="1" vertex="1">
                    <mxGeometry x="140" y="70" width="250" height="26" as="geometry"/>
                </mxCell>
                <mxCell id="96" value="&lt;font style=&quot;font-size: 24px&quot; color=&quot;#66b2ff&quot;&gt;See the Model&lt;/font&gt;" style="strokeWidth=1;shadow=0;dashed=0;align=center;html=1;shape=mxgraph.mockup.text.textBox;fontColor=#666666;align=left;fontSize=17;spacingLeft=4;spacingTop=-3;strokeColor=#666666;mainText=;rounded=0;sketch=0;fillColor=#FFFFFF;gradientColor=none;opacity=0;" parent="1" vertex="1">
                    <mxGeometry x="185" y="1560" width="180" height="30" as="geometry"/>
                </mxCell>
                <mxCell id="93" value="" style="shape=mxgraph.mockup.containers.marginRect;rectMarginTop=10;strokeColor=#666666;strokeWidth=1;dashed=0;rounded=1;arcSize=5;recursiveResize=0;sketch=0;fontColor=#1D3557;fillColor=#FFFFFF;gradientColor=none;container=0;" parent="1" vertex="1">
                    <mxGeometry x="580" y="1050" width="580" height="450" as="geometry"/>
                </mxCell>
                <mxCell id="129" value="" style="shape=mxgraph.cisco.people.standing_woman;html=1;pointerEvents=1;dashed=0;fillColor=#036897;strokeColor=#ffffff;strokeWidth=2;verticalLabelPosition=bottom;verticalAlign=top;align=center;outlineConnect=0;rounded=0;sketch=0;aspect=fixed;" parent="1" vertex="1">
                    <mxGeometry x="509.03" y="760" width="70.97" height="200" as="geometry"/>
                </mxCell>
                <mxCell id="128" value="" style="shape=mxgraph.cisco.people.standing_man;html=1;pointerEvents=1;dashed=0;fillColor=#036897;strokeColor=#ffffff;strokeWidth=2;verticalLabelPosition=bottom;verticalAlign=top;align=center;outlineConnect=0;rounded=0;sketch=0;aspect=fixed;" parent="1" vertex="1">
                    <mxGeometry x="1165" y="760" width="70.97" height="200" as="geometry"/>
                </mxCell>
                <mxCell id="150" value="" style="strokeWidth=1;shadow=0;dashed=0;align=center;html=1;shape=mxgraph.mockup.rrect;rSize=10;strokeColor=#36393d;rounded=0;labelBackgroundColor=#ffffff;sketch=0;fillColor=#FFFFFF;" parent="1" vertex="1">
                    <mxGeometry x="1305" y="760" width="120" height="200" as="geometry"/>
                </mxCell>
                <mxCell id="151" value="Top 25%" style="strokeColor=inherit;fillColor=inherit;gradientColor=inherit;strokeWidth=1;shadow=0;dashed=0;align=center;html=1;shape=mxgraph.mockup.rrect;rSize=0;fontSize=17;fontColor=#666666;fontStyle=1;resizeWidth=1;" parent="150" vertex="1">
                    <mxGeometry width="120" height="50" relative="1" as="geometry">
                        <mxPoint y="50" as="offset"/>
                    </mxGeometry>
                </mxCell>
                <mxCell id="152" value="Top 50%" style="strokeColor=inherit;fillColor=inherit;gradientColor=inherit;strokeWidth=1;shadow=0;dashed=0;align=center;html=1;shape=mxgraph.mockup.rrect;rSize=0;fontSize=17;fontColor=#666666;fontStyle=1;resizeWidth=1;" parent="150" vertex="1">
                    <mxGeometry width="120" height="50" relative="1" as="geometry">
                        <mxPoint y="100" as="offset"/>
                    </mxGeometry>
                </mxCell>
                <mxCell id="153" value="Bottom 25%" style="strokeColor=inherit;fillColor=inherit;gradientColor=inherit;strokeWidth=1;shadow=0;dashed=0;align=center;html=1;shape=mxgraph.mockup.bottomButton;rSize=10;fontSize=17;fontColor=#666666;fontStyle=1;resizeWidth=1;" parent="150" vertex="1">
                    <mxGeometry y="1" width="120" height="50" relative="1" as="geometry">
                        <mxPoint y="-50" as="offset"/>
                    </mxGeometry>
                </mxCell>
                <mxCell id="154" value="Top 5%" style="strokeWidth=1;shadow=0;dashed=0;align=center;html=1;shape=mxgraph.mockup.topButton;rSize=10;fontSize=17;fontColor=#ffffff;fontStyle=1;fillColor=#008cff;strokeColor=#008cff;resizeWidth=1;" parent="150" vertex="1">
                    <mxGeometry width="120" height="50" relative="1" as="geometry"/>
                </mxCell>
                <mxCell id="155" value="&lt;font color=&quot;#036897&quot;&gt;vs.&lt;/font&gt;" style="strokeColor=#6c8ebf;strokeWidth=1;shadow=0;dashed=0;align=center;html=1;shape=mxgraph.mockup.rrect;rSize=0;fontSize=200;fontStyle=1;resizeHeight=1;fillColor=#FFFFFF;fontColor=#666666;opacity=0;" parent="1" vertex="1">
                    <mxGeometry x="742" y="775" width="290" height="170" as="geometry"/>
                </mxCell>
                <mxCell id="162" value="&lt;font color=&quot;#036897&quot; style=&quot;font-size: 100px&quot;&gt;2.5h&lt;/font&gt;" style="strokeColor=#6c8ebf;strokeWidth=1;shadow=0;dashed=0;align=center;html=1;shape=mxgraph.mockup.rrect;rSize=0;fontSize=200;fontStyle=1;resizeHeight=1;fillColor=#FFFFFF;fontColor=#666666;opacity=0;" parent="1" vertex="1">
                    <mxGeometry x="481.77" y="630" width="125.49" height="40" as="geometry"/>
                </mxCell>
                <mxCell id="164" value="&lt;font color=&quot;#036897&quot; style=&quot;font-size: 100px&quot;&gt;4h&lt;/font&gt;" style="strokeColor=#6c8ebf;strokeWidth=1;shadow=0;dashed=0;align=center;html=1;shape=mxgraph.mockup.rrect;rSize=0;fontSize=200;fontStyle=1;resizeHeight=1;fillColor=#FFFFFF;fontColor=#666666;opacity=0;" parent="1" vertex="1">
                    <mxGeometry x="1135" y="630" width="125.49" height="40" as="geometry"/>
                </mxCell>
                <mxCell id="94" value="Factors" style="shape=rect;strokeColor=none;fillColor=#008cff;strokeWidth=1;dashed=0;rounded=1;arcSize=20;fontColor=#ffffff;fontSize=17;spacing=2;spacingTop=-2;align=center;autosize=1;spacingLeft=4;resizeWidth=0;resizeHeight=0;perimeter=none;verticalAlign=middle;fontStyle=1" parent="1" vertex="1">
                    <mxGeometry x="585" y="1050" width="80" height="30" as="geometry"/>
                </mxCell>
                <mxCell id="92" value="Calculate" style="strokeWidth=1;shadow=0;dashed=0;align=center;html=1;shape=mxgraph.mockup.buttons.button;strokeColor=#666666;fontColor=#ffffff;mainText=;buttonStyle=round;fontSize=17;fontStyle=1;fillColor=#008cff;whiteSpace=wrap;rounded=0;sketch=0;" parent="1" vertex="1">
                    <mxGeometry x="1035" y="1450" width="100" height="30" as="geometry"/>
                </mxCell>
                <mxCell id="98" value="2. Income" style="strokeColor=inherit;fillColor=inherit;gradientColor=inherit;strokeWidth=1;shadow=0;dashed=0;align=left;html=1;shape=mxgraph.mockup.containers.rrect;rSize=0;fontSize=17;fontColor=#666666;fontStyle=1;resizeWidth=1;opacity=0;" parent="1" vertex="1">
                    <mxGeometry x="607.26" y="1170" width="140" height="26" as="geometry"/>
                </mxCell>
                <mxCell id="97" value="1. Race" style="strokeColor=inherit;fillColor=inherit;gradientColor=inherit;strokeWidth=1;shadow=0;dashed=0;align=left;html=1;shape=mxgraph.mockup.containers.rrect;rSize=0;fontSize=17;fontColor=#666666;fontStyle=1;resizeWidth=1;opacity=0;" parent="1" vertex="1">
                    <mxGeometry x="610" y="1090" width="140" height="26" as="geometry"/>
                </mxCell>
                <mxCell id="113" value="" style="strokeWidth=1;shadow=0;dashed=0;align=center;html=1;shape=mxgraph.mockup.rrect;rSize=10;fillColor=#ffffff;strokeColor=#666666;rounded=0;labelBackgroundColor=none;sketch=0;fontColor=#FFFFFF;opacity=0;" parent="1" vertex="1">
                    <mxGeometry x="640" y="1130" width="490" height="30" as="geometry"/>
                </mxCell>
                <mxCell id="114" value="Black" style="strokeColor=inherit;fillColor=inherit;gradientColor=inherit;strokeWidth=1;shadow=0;dashed=0;align=center;html=1;shape=mxgraph.mockup.rrect;rSize=0;fontSize=17;fontColor=#666666;fontStyle=1;resizeHeight=1;" parent="113" vertex="1">
                    <mxGeometry width="125" height="30" relative="1" as="geometry">
                        <mxPoint x="125" as="offset"/>
                    </mxGeometry>
                </mxCell>
                <mxCell id="115" value="Asian" style="strokeColor=inherit;fillColor=inherit;gradientColor=inherit;strokeWidth=1;shadow=0;dashed=0;align=center;html=1;shape=mxgraph.mockup.rrect;rSize=0;fontSize=17;fontColor=#666666;fontStyle=1;resizeHeight=1;" parent="113" vertex="1">
                    <mxGeometry width="125" height="30" relative="1" as="geometry">
                        <mxPoint x="250" as="offset"/>
                    </mxGeometry>
                </mxCell>
                <mxCell id="116" value="Other" style="strokeColor=inherit;fillColor=inherit;gradientColor=inherit;strokeWidth=1;shadow=0;dashed=0;align=center;html=1;shape=mxgraph.mockup.rightButton;rSize=10;fontSize=17;fontColor=#666666;fontStyle=1;resizeHeight=1;" parent="113" vertex="1">
                    <mxGeometry x="1" width="125" height="30" relative="1" as="geometry">
                        <mxPoint x="-125" as="offset"/>
                    </mxGeometry>
                </mxCell>
                <mxCell id="117" value="White" style="strokeWidth=1;shadow=0;dashed=0;align=center;html=1;shape=mxgraph.mockup.leftButton;rSize=10;fontSize=17;fontColor=#ffffff;fontStyle=1;fillColor=#008cff;strokeColor=#008cff;resizeHeight=1;" parent="113" vertex="1">
                    <mxGeometry width="125" height="30" relative="1" as="geometry"/>
                </mxCell>
                <mxCell id="99" value="3. Internet&amp;nbsp;" style="strokeColor=inherit;fillColor=inherit;gradientColor=inherit;strokeWidth=1;shadow=0;dashed=0;align=left;html=1;shape=mxgraph.mockup.containers.rrect;rSize=0;fontSize=17;fontColor=#666666;fontStyle=1;resizeWidth=1;opacity=0;" parent="1" vertex="1">
                    <mxGeometry x="607.26" y="1290" width="140" height="26" as="geometry"/>
                </mxCell>
                <mxCell id="166" value="25K" style="strokeColor=inherit;fillColor=inherit;gradientColor=inherit;strokeWidth=1;shadow=0;dashed=0;align=left;html=1;shape=mxgraph.mockup.containers.rrect;rSize=0;fontSize=17;fontColor=#666666;fontStyle=1;resizeWidth=1;opacity=0;" parent="1" vertex="1">
                    <mxGeometry x="710" y="1240" width="40" height="26" as="geometry"/>
                </mxCell>
                <mxCell id="198" value="150K" style="strokeColor=inherit;fillColor=inherit;gradientColor=inherit;strokeWidth=1;shadow=0;dashed=0;align=left;html=1;shape=mxgraph.mockup.containers.rrect;rSize=0;fontSize=17;fontColor=#666666;fontStyle=1;resizeWidth=1;opacity=0;" parent="1" vertex="1">
                    <mxGeometry x="955" y="1240" width="40" height="26" as="geometry"/>
                </mxCell>
                <mxCell id="199" value="200K" style="strokeColor=inherit;fillColor=inherit;gradientColor=inherit;strokeWidth=1;shadow=0;dashed=0;align=left;html=1;shape=mxgraph.mockup.containers.rrect;rSize=0;fontSize=17;fontColor=#666666;fontStyle=1;resizeWidth=1;opacity=0;" parent="1" vertex="1">
                    <mxGeometry x="1029" y="1240" width="50" height="26" as="geometry"/>
                </mxCell>
                <mxCell id="200" value="&lt;font style=&quot;font-size: 12px&quot;&gt;Always&lt;/font&gt;" style="strokeColor=inherit;fillColor=inherit;gradientColor=inherit;strokeWidth=1;shadow=0;dashed=0;align=left;html=1;shape=mxgraph.mockup.containers.rrect;rSize=0;fontSize=17;fontColor=#666666;fontStyle=1;resizeWidth=1;opacity=0;" parent="1" vertex="1">
                    <mxGeometry x="1029" y="1370" width="45" height="26" as="geometry"/>
                </mxCell>
                <mxCell id="203" value="&lt;font style=&quot;font-size: 14px&quot;&gt;Rarely&lt;/font&gt;" style="strokeColor=inherit;fillColor=inherit;gradientColor=inherit;strokeWidth=1;shadow=0;dashed=0;align=left;html=1;shape=mxgraph.mockup.containers.rrect;rSize=0;fontSize=17;fontColor=#666666;fontStyle=1;resizeWidth=1;opacity=0;" parent="1" vertex="1">
                    <mxGeometry x="785" y="1370" width="45" height="26" as="geometry"/>
                </mxCell>
                <mxCell id="202" value="&lt;font style=&quot;font-size: 14px&quot;&gt;Never&lt;/font&gt;" style="strokeColor=inherit;fillColor=inherit;gradientColor=inherit;strokeWidth=1;shadow=0;dashed=0;align=left;html=1;shape=mxgraph.mockup.containers.rrect;rSize=0;fontSize=17;fontColor=#666666;fontStyle=1;resizeWidth=1;opacity=0;" parent="1" vertex="1">
                    <mxGeometry x="712.5" y="1370" width="45" height="26" as="geometry"/>
                </mxCell>
                <mxCell id="204" value="&lt;font style=&quot;font-size: 14px&quot;&gt;Sometimes&lt;/font&gt;" style="strokeColor=inherit;fillColor=inherit;gradientColor=inherit;strokeWidth=1;shadow=0;dashed=0;align=left;html=1;shape=mxgraph.mockup.containers.rrect;rSize=0;fontSize=17;fontColor=#666666;fontStyle=1;resizeWidth=1;opacity=0;" parent="1" vertex="1">
                    <mxGeometry x="855" y="1370" width="45" height="26" as="geometry"/>
                </mxCell>
                <mxCell id="205" value="&lt;font style=&quot;font-size: 14px&quot;&gt;Usually&lt;/font&gt;" style="strokeColor=inherit;fillColor=inherit;gradientColor=inherit;strokeWidth=1;shadow=0;dashed=0;align=left;html=1;shape=mxgraph.mockup.containers.rrect;rSize=0;fontSize=17;fontColor=#666666;fontStyle=1;resizeWidth=1;opacity=0;" parent="1" vertex="1">
                    <mxGeometry x="950" y="1370" width="45" height="26" as="geometry"/>
                </mxCell>
                <mxCell id="214" value="" style="verticalLabelPosition=bottom;shadow=0;dashed=0;align=center;html=1;verticalAlign=top;strokeWidth=4;shape=mxgraph.mockup.forms.horSlider;strokeColor=#999999;sliderStyle=basic;sliderPos=20;handleStyle=circle;fillColor2=#ddeeff;rounded=0;sketch=0;fontColor=#1D3557;fillColor=#FFFFFF;gradientColor=none;" parent="1" vertex="1">
                    <mxGeometry x="637.5" y="1340" width="480" height="30" as="geometry"/>
                </mxCell>
                <mxCell id="85" value="" style="verticalLabelPosition=bottom;shadow=0;dashed=0;align=center;html=1;verticalAlign=top;strokeWidth=4;shape=mxgraph.mockup.forms.horSlider;strokeColor=#999999;sliderStyle=basic;sliderPos=20;handleStyle=circle;fillColor2=#ddeeff;rounded=0;sketch=0;fontColor=#1D3557;fillColor=#FFFFFF;gradientColor=none;" parent="1" vertex="1">
                    <mxGeometry x="637.5" y="1210" width="480" height="30" as="geometry"/>
                </mxCell>
                <mxCell id="193" value="50K" style="strokeColor=inherit;fillColor=inherit;gradientColor=inherit;strokeWidth=1;shadow=0;dashed=0;align=left;html=1;shape=mxgraph.mockup.containers.rrect;rSize=0;fontSize=17;fontColor=#666666;fontStyle=1;resizeWidth=1;opacity=0;" parent="1" vertex="1">
                    <mxGeometry x="790" y="1240" width="40" height="26" as="geometry"/>
                </mxCell>
                <mxCell id="194" value="100K" style="strokeColor=inherit;fillColor=inherit;gradientColor=inherit;strokeWidth=1;shadow=0;dashed=0;align=left;html=1;shape=mxgraph.mockup.containers.rrect;rSize=0;fontSize=17;fontColor=#666666;fontStyle=1;resizeWidth=1;opacity=0;" parent="1" vertex="1">
                    <mxGeometry x="864" y="1240" width="50" height="26" as="geometry"/>
                </mxCell>
                <mxCell id="215" value="&lt;font color=&quot;#66b2ff&quot;&gt;&lt;span style=&quot;font-size: 24px&quot;&gt;See the Docs&lt;/span&gt;&lt;/font&gt;" style="strokeWidth=1;shadow=0;dashed=0;align=center;html=1;shape=mxgraph.mockup.text.textBox;fontColor=#666666;align=left;fontSize=17;spacingLeft=4;spacingTop=-3;strokeColor=#666666;mainText=;rounded=0;sketch=0;fillColor=#FFFFFF;gradientColor=none;opacity=0;" parent="1" vertex="1">
                    <mxGeometry x="1330" y="1560" width="180" height="30" as="geometry"/>
                </mxCell>
            </root>
        </mxGraphModel>
    </diagram>
</mxfile>